<mxfile host="app.diagrams.net" modified="2023-08-17T03:36:41.225Z" agent="Mozilla/5.0 (Macintosh; Intel Mac OS X 10_15_7) AppleWebKit/537.36 (KHTML, like Gecko) Chrome/115.0.0.0 Safari/537.36" version="21.6.8" etag="sslRauAZQZ8yaxnnj7xA" type="github">
  <diagram name="Trang-1" id="kw509gCq4ZrfLWenSLBg">
    <mxGraphModel>
      <root>
        <mxCell id="0" />
        <mxCell id="1" parent="0" />
      </root>
    </mxGraphModel>
  </diagram>
</mxfile>
